<svg width="1144" height="792" viewBox="0 0 1144 792" fill="none" xmlns="http://www.w3.org/2000/svg">
<g clip-path="url(#clip0_6015_72)">
<g filter="url(#filter0_f_6015_72)">
<mask id="mask0_6015_72" style="mask-type:alpha" maskUnits="userSpaceOnUse" x="201" y="71" width="793" height="651">
<path d="M898.546 543.463C899.583 539.872 899.644 536.048 898.722 532.383C897.8 528.718 895.928 525.342 893.298 522.6L698.488 319.536L985.66 109.415C989.416 106.512 992.06 102.407 993.165 97.7608C994.27 93.1138 993.772 88.1968 991.752 83.7988C989.731 79.4018 986.305 75.7818 982.026 73.5198C977.746 71.2588 972.862 70.4888 968.16 71.3338L307.937 230.494C304.253 231.254 300.86 232.989 298.108 235.52C295.356 238.05 293.344 241.284 292.28 244.888C291.216 248.493 291.138 252.337 292.054 256.025C292.97 259.713 294.848 263.11 297.493 265.868L489.391 465.897L208.614 683.451C204.965 686.442 202.448 690.591 201.462 695.237C200.476 699.884 201.078 704.761 203.173 709.092C205.268 713.423 208.735 716.96 213.023 719.14C217.311 721.32 222.172 722.018 226.835 721.122L883.098 557.926C886.751 557.126 890.105 555.366 892.819 552.825C895.533 550.284 897.509 547.054 898.546 543.463Z" fill="black"/>
</mask>
<g mask="url(#mask0_6015_72)">
<g filter="url(#filter1_f_6015_72)">
<path d="M444.716 249.166L589.293 303.626C470.758 618.3 521.251 929.608 701.861 997.638L606.974 1249.53C346.662 1151.48 273.872 702.704 444.716 249.166Z" fill="url(#paint0_linear_6015_72)"/>
<path d="M520.081 277.554L641.6 323.33C541.994 587.754 584.434 849.408 736.203 906.578L656.449 1118.3C437.657 1035.89 376.511 658.69 520.081 277.554Z" fill="url(#paint1_linear_6015_72)"/>
<path d="M387.764 400.47L532.341 454.931C650.876 140.257 894.208 -60.3662 1074.82 7.66779L1169.7 -244.226C909.391 -342.283 558.609 -53.0692 387.764 400.47Z" fill="url(#paint2_linear_6015_72)"/>
<path d="M225.789 428.452L370.365 482.913C488.9 168.239 732.232 -32.3831 912.842 35.6509L1007.73 -216.243C747.416 -314.301 396.633 -25.0871 225.789 428.452Z" fill="url(#paint3_linear_6015_72)"/>
</g>
<g filter="url(#filter2_f_6015_72)">
<path d="M565.6 345.005L625.98 367.75C576.476 499.168 597.564 629.179 672.992 657.592L633.365 762.791C524.65 721.839 494.25 534.418 565.6 345.005Z" fill="url(#paint4_linear_6015_72)"/>
<path d="M965.862 461.49L957.373 563.49C735.422 545.016 546.209 633.634 535.606 761.025L357.894 746.233C373.179 562.584 645.947 434.863 965.862 461.49Z" fill="url(#paint5_linear_6015_72)"/>
<path d="M994.861 350.961L986.371 452.96C764.42 434.487 575.208 523.105 564.604 650.495L386.892 635.704C402.178 452.055 674.946 324.333 994.861 350.961Z" fill="url(#paint6_linear_6015_72)"/>
<path d="M688.18 516.894L679.69 618.894C457.739 600.42 268.527 689.038 257.924 816.428L80.2113 801.637C95.4969 617.988 368.265 490.267 688.18 516.894Z" fill="url(#paint7_linear_6015_72)"/>
<path d="M541.815 408.195L602.195 430.94C651.699 299.521 753.323 215.735 828.751 244.148L868.379 138.949C759.664 97.9966 613.166 218.782 541.815 408.195Z" fill="url(#paint8_linear_6015_72)"/>
<path d="M683.215 343.69L743.595 366.434C793.099 235.016 894.723 151.23 970.151 179.643L1009.78 74.4437C901.064 33.4917 754.565 154.277 683.215 343.69Z" fill="url(#paint9_linear_6015_72)"/>
</g>
</g>
</g>
</g>
<defs>
<filter id="filter0_f_6015_72" x="101" y="-29" width="992.74" height="850.502" filterUnits="userSpaceOnUse" color-interpolation-filters="sRGB">
<feFlood flood-opacity="0" result="BackgroundImageFix"/>
<feBlend mode="normal" in="SourceGraphic" in2="BackgroundImageFix" result="shape"/>
<feGaussianBlur stdDeviation="50" result="effect1_foregroundBlur_6015_72"/>
</filter>
<filter id="filter1_f_6015_72" x="68.7504" y="-420.365" width="1257.99" height="1826.93" filterUnits="userSpaceOnUse" color-interpolation-filters="sRGB">
<feFlood flood-opacity="0" result="BackgroundImageFix"/>
<feBlend mode="normal" in="SourceGraphic" in2="BackgroundImageFix" result="shape"/>
<feGaussianBlur stdDeviation="78.5193" result="effect1_foregroundBlur_6015_72"/>
</filter>
<filter id="filter2_f_6015_72" x="1.6919" y="-12.0526" width="1086.61" height="907" filterUnits="userSpaceOnUse" color-interpolation-filters="sRGB">
<feFlood flood-opacity="0" result="BackgroundImageFix"/>
<feBlend mode="normal" in="SourceGraphic" in2="BackgroundImageFix" result="shape"/>
<feGaussianBlur stdDeviation="39.2597" result="effect1_foregroundBlur_6015_72"/>
</filter>
<linearGradient id="paint0_linear_6015_72" x1="680.784" y1="338.08" x2="370.935" y2="1160.63" gradientUnits="userSpaceOnUse">
<stop stop-color="#9403FD"/>
<stop offset="1" stop-color="#00ADFE"/>
</linearGradient>
<linearGradient id="paint1_linear_6015_72" x1="718.458" y1="352.271" x2="458.063" y2="1043.54" gradientUnits="userSpaceOnUse">
<stop stop-color="#9403FD"/>
<stop offset="1" stop-color="#00ADFE"/>
</linearGradient>
<linearGradient id="paint2_linear_6015_72" x1="623.828" y1="489.405" x2="933.676" y2="-333.145" gradientUnits="userSpaceOnUse">
<stop stop-color="#FF12DC"/>
<stop offset="1" stop-color="#FFB912"/>
</linearGradient>
<linearGradient id="paint3_linear_6015_72" x1="461.852" y1="517.388" x2="771.7" y2="-305.163" gradientUnits="userSpaceOnUse">
<stop stop-color="#FF12DC"/>
<stop offset="1" stop-color="#FFB912"/>
</linearGradient>
<linearGradient id="paint4_linear_6015_72" x1="664.19" y1="382.139" x2="534.787" y2="725.663" gradientUnits="userSpaceOnUse">
<stop stop-color="#9403FD"/>
<stop offset="1" stop-color="#00ADFE"/>
</linearGradient>
<linearGradient id="paint5_linear_6015_72" x1="952.011" y1="628.001" x2="371.778" y2="579.706" gradientUnits="userSpaceOnUse">
<stop stop-color="#9403FD"/>
<stop offset="1" stop-color="#00ADFE"/>
</linearGradient>
<linearGradient id="paint6_linear_6015_72" x1="981.009" y1="517.471" x2="400.777" y2="469.177" gradientUnits="userSpaceOnUse">
<stop stop-color="#9403FD"/>
<stop offset="1" stop-color="#00ADFE"/>
</linearGradient>
<linearGradient id="paint7_linear_6015_72" x1="674.328" y1="683.404" x2="94.0958" y2="635.11" gradientUnits="userSpaceOnUse">
<stop stop-color="#9403FD"/>
<stop offset="1" stop-color="#00ADFE"/>
</linearGradient>
<linearGradient id="paint8_linear_6015_72" x1="640.403" y1="445.337" x2="769.806" y2="101.813" gradientUnits="userSpaceOnUse">
<stop stop-color="#FF12DC"/>
<stop offset="1" stop-color="#FFB912"/>
</linearGradient>
<linearGradient id="paint9_linear_6015_72" x1="781.803" y1="380.832" x2="911.206" y2="37.3077" gradientUnits="userSpaceOnUse">
<stop stop-color="#FF12DC"/>
<stop offset="1" stop-color="#FFB912"/>
</linearGradient>
<clipPath id="clip0_6015_72">
<rect width="1144" height="792" fill="white"/>
</clipPath>
</defs>
</svg>
