<svg width="993" height="851" viewBox="0 0 993 851" fill="none" xmlns="http://www.w3.org/2000/svg">
<g filter="url(#filter0_f_6015_55)">
<mask id="mask0_6015_55" style="mask-type:alpha" maskUnits="userSpaceOnUse" x="100" y="100" width="793" height="651">
<path d="M797.546 572.463C798.583 568.872 798.644 565.048 797.722 561.383C796.8 557.718 794.928 554.342 792.298 551.6L597.488 348.536L884.66 138.415C888.416 135.512 891.06 131.407 892.165 126.761C893.27 122.114 892.772 117.197 890.752 112.799C888.731 108.402 885.305 104.782 881.026 102.52C876.746 100.259 871.862 99.4888 867.16 100.334L206.937 259.494C203.253 260.254 199.86 261.989 197.108 264.52C194.356 267.05 192.344 270.284 191.28 273.888C190.216 277.493 190.138 281.337 191.054 285.025C191.97 288.713 193.848 292.11 196.493 294.868L388.391 494.897L107.614 712.451C103.965 715.442 101.448 719.591 100.462 724.237C99.476 728.884 100.078 733.761 102.173 738.092C104.268 742.423 107.735 745.96 112.023 748.14C116.311 750.32 121.172 751.018 125.835 750.122L782.098 586.926C785.751 586.126 789.105 584.366 791.819 581.825C794.533 579.284 796.509 576.054 797.546 572.463Z" fill="black"/>
</mask>
<g mask="url(#mask0_6015_55)">
<g filter="url(#filter1_f_6015_55)">
<path d="M343.716 278.166L488.293 332.626C369.758 647.3 420.251 958.608 600.861 1026.64L505.974 1278.53C245.662 1180.48 172.872 731.704 343.716 278.166Z" fill="url(#paint0_linear_6015_55)"/>
<path d="M419.081 306.554L540.6 352.33C440.994 616.754 483.434 878.408 635.203 935.578L555.449 1147.3C336.657 1064.89 275.511 687.69 419.081 306.554Z" fill="url(#paint1_linear_6015_55)"/>
<path d="M286.764 429.47L431.341 483.931C549.876 169.257 793.208 -31.3662 973.819 36.6678L1068.7 -215.226C808.391 -313.283 457.609 -24.0692 286.764 429.47Z" fill="url(#paint2_linear_6015_55)"/>
<path d="M124.789 457.452L269.365 511.913C387.9 197.239 631.232 -3.38306 811.842 64.6509L906.728 -187.243C646.416 -285.301 295.633 3.9129 124.789 457.452Z" fill="url(#paint3_linear_6015_55)"/>
</g>
<g filter="url(#filter2_f_6015_55)">
<path d="M464.6 374.005L524.98 396.75C475.476 528.168 496.564 658.179 571.992 686.592L532.365 791.791C423.65 750.839 393.25 563.418 464.6 374.005Z" fill="url(#paint4_linear_6015_55)"/>
<path d="M864.862 490.49L856.373 592.49C634.422 574.016 445.209 662.634 434.606 790.025L256.894 775.233C272.179 591.584 544.947 463.863 864.862 490.49Z" fill="url(#paint5_linear_6015_55)"/>
<path d="M893.861 379.961L885.371 481.96C663.42 463.487 474.208 552.105 463.604 679.495L285.892 664.704C301.178 481.055 573.946 353.333 893.861 379.961Z" fill="url(#paint6_linear_6015_55)"/>
<path d="M587.18 545.894L578.69 647.894C356.739 629.42 167.527 718.038 156.924 845.428L-20.7886 830.637C-5.50304 646.988 267.265 519.267 587.18 545.894Z" fill="url(#paint7_linear_6015_55)"/>
<path d="M440.815 437.195L501.195 459.94C550.699 328.521 652.323 244.735 727.751 273.148L767.379 167.949C658.664 126.997 512.166 247.782 440.815 437.195Z" fill="url(#paint8_linear_6015_55)"/>
<path d="M582.215 372.69L642.595 395.434C692.099 264.016 793.723 180.23 869.151 208.643L908.779 103.444C800.064 62.4917 653.565 183.277 582.215 372.69Z" fill="url(#paint9_linear_6015_55)"/>
</g>
</g>
</g>
<defs>
<filter id="filter0_f_6015_55" x="0" y="0" width="992.74" height="850.502" filterUnits="userSpaceOnUse" color-interpolation-filters="sRGB">
<feFlood flood-opacity="0" result="BackgroundImageFix"/>
<feBlend mode="normal" in="SourceGraphic" in2="BackgroundImageFix" result="shape"/>
<feGaussianBlur stdDeviation="50" result="effect1_foregroundBlur_6015_55"/>
</filter>
<filter id="filter1_f_6015_55" x="-32.2495" y="-391.365" width="1257.99" height="1826.93" filterUnits="userSpaceOnUse" color-interpolation-filters="sRGB">
<feFlood flood-opacity="0" result="BackgroundImageFix"/>
<feBlend mode="normal" in="SourceGraphic" in2="BackgroundImageFix" result="shape"/>
<feGaussianBlur stdDeviation="78.5193" result="effect1_foregroundBlur_6015_55"/>
</filter>
<filter id="filter2_f_6015_55" x="-99.308" y="16.9474" width="1086.61" height="907" filterUnits="userSpaceOnUse" color-interpolation-filters="sRGB">
<feFlood flood-opacity="0" result="BackgroundImageFix"/>
<feBlend mode="normal" in="SourceGraphic" in2="BackgroundImageFix" result="shape"/>
<feGaussianBlur stdDeviation="39.2597" result="effect1_foregroundBlur_6015_55"/>
</filter>
<linearGradient id="paint0_linear_6015_55" x1="579.784" y1="367.08" x2="269.935" y2="1189.63" gradientUnits="userSpaceOnUse">
<stop stop-color="#9403FD"/>
<stop offset="1" stop-color="#00ADFE"/>
</linearGradient>
<linearGradient id="paint1_linear_6015_55" x1="617.458" y1="381.271" x2="357.063" y2="1072.54" gradientUnits="userSpaceOnUse">
<stop stop-color="#9403FD"/>
<stop offset="1" stop-color="#00ADFE"/>
</linearGradient>
<linearGradient id="paint2_linear_6015_55" x1="522.828" y1="518.405" x2="832.676" y2="-304.145" gradientUnits="userSpaceOnUse">
<stop stop-color="#FF12DC"/>
<stop offset="1" stop-color="#FFB912"/>
</linearGradient>
<linearGradient id="paint3_linear_6015_55" x1="360.852" y1="546.388" x2="670.7" y2="-276.163" gradientUnits="userSpaceOnUse">
<stop stop-color="#FF12DC"/>
<stop offset="1" stop-color="#FFB912"/>
</linearGradient>
<linearGradient id="paint4_linear_6015_55" x1="563.19" y1="411.139" x2="433.787" y2="754.663" gradientUnits="userSpaceOnUse">
<stop stop-color="#9403FD"/>
<stop offset="1" stop-color="#00ADFE"/>
</linearGradient>
<linearGradient id="paint5_linear_6015_55" x1="851.011" y1="657.001" x2="270.778" y2="608.706" gradientUnits="userSpaceOnUse">
<stop stop-color="#9403FD"/>
<stop offset="1" stop-color="#00ADFE"/>
</linearGradient>
<linearGradient id="paint6_linear_6015_55" x1="880.009" y1="546.471" x2="299.777" y2="498.177" gradientUnits="userSpaceOnUse">
<stop stop-color="#9403FD"/>
<stop offset="1" stop-color="#00ADFE"/>
</linearGradient>
<linearGradient id="paint7_linear_6015_55" x1="573.328" y1="712.404" x2="-6.90414" y2="664.11" gradientUnits="userSpaceOnUse">
<stop stop-color="#9403FD"/>
<stop offset="1" stop-color="#00ADFE"/>
</linearGradient>
<linearGradient id="paint8_linear_6015_55" x1="539.403" y1="474.337" x2="668.806" y2="130.813" gradientUnits="userSpaceOnUse">
<stop stop-color="#FF12DC"/>
<stop offset="1" stop-color="#FFB912"/>
</linearGradient>
<linearGradient id="paint9_linear_6015_55" x1="680.803" y1="409.832" x2="810.206" y2="66.3077" gradientUnits="userSpaceOnUse">
<stop stop-color="#FF12DC"/>
<stop offset="1" stop-color="#FFB912"/>
</linearGradient>
</defs>
</svg>
